<?xml version="1.0" encoding="utf-8"?>
<!-- Generator: Adobe Illustrator 15.0.0, SVG Export Plug-In . SVG Version: 6.00 Build 0)  -->
<!DOCTYPE svg PUBLIC "-//W3C//DTD SVG 1.1//EN" "http://www.w3.org/Graphics/SVG/1.1/DTD/svg11.dtd">
<svg version="1.1" id="Layer_1" xmlns="http://www.w3.org/2000/svg" xmlns:xlink="http://www.w3.org/1999/xlink" x="0px" y="0px"
	 width="176px" height="208px" viewBox="0 0 176 208" enable-background="new 0 0 176 208" xml:space="preserve">
<circle fill="#D24E2F" cx="88.021" cy="103.79" r="25.113"/>
<g>
	<g>
		<path fill="#FFFFFF" d="M68.064,106.277v-5.2h1.975c0.25,0,0.474,0.034,0.675,0.099c0.202,0.066,0.374,0.164,0.519,0.295
			c0.141,0.129,0.253,0.285,0.334,0.471c0.078,0.184,0.119,0.392,0.119,0.623c0,0.435-0.16,0.772-0.479,1.009
			c0.16,0.093,0.292,0.236,0.394,0.431c0.102,0.191,0.151,0.415,0.151,0.668c0,0.518-0.15,0.915-0.454,1.19
			c-0.303,0.276-0.752,0.415-1.348,0.415H68.064z M69.115,101.705c0-0.088-0.033-0.162-0.096-0.223
			c-0.064-0.062-0.14-0.092-0.227-0.092c-0.088,0-0.164,0.03-0.225,0.092c-0.06,0.061-0.09,0.135-0.09,0.223
			c0,0.094,0.03,0.172,0.09,0.231c0.061,0.061,0.137,0.092,0.225,0.092c0.087,0,0.162-0.031,0.227-0.092
			C69.082,101.877,69.115,101.799,69.115,101.705z M69.115,102.482c0-0.094-0.033-0.172-0.096-0.23
			c-0.064-0.062-0.14-0.092-0.227-0.092c-0.088,0-0.164,0.029-0.225,0.092c-0.06,0.059-0.09,0.137-0.09,0.23
			c0,0.089,0.03,0.162,0.09,0.223c0.061,0.061,0.137,0.091,0.225,0.091c0.087,0,0.162-0.03,0.227-0.091
			C69.082,102.645,69.115,102.571,69.115,102.482z M69.115,103.242c0-0.088-0.033-0.164-0.096-0.227
			c-0.064-0.063-0.14-0.095-0.227-0.095c-0.088,0-0.164,0.031-0.225,0.095c-0.06,0.062-0.09,0.139-0.09,0.227s0.03,0.164,0.09,0.228
			c0.061,0.063,0.137,0.095,0.225,0.095c0.087,0,0.162-0.031,0.227-0.095C69.082,103.406,69.115,103.33,69.115,103.242z
			 M69.115,104.004c0-0.089-0.033-0.164-0.096-0.224c-0.064-0.062-0.14-0.091-0.227-0.091c-0.088,0-0.164,0.029-0.225,0.091
			c-0.06,0.06-0.09,0.135-0.09,0.224c0,0.093,0.03,0.17,0.09,0.23c0.061,0.062,0.137,0.092,0.225,0.092
			c0.087,0,0.162-0.03,0.227-0.092C69.082,104.174,69.115,104.097,69.115,104.004z M69.115,104.838c0-0.088-0.033-0.164-0.096-0.227
			c-0.064-0.063-0.14-0.096-0.227-0.096c-0.088,0-0.164,0.032-0.225,0.096c-0.06,0.062-0.09,0.139-0.09,0.227s0.03,0.164,0.09,0.227
			c0.061,0.065,0.137,0.097,0.225,0.097c0.087,0,0.162-0.031,0.227-0.097C69.082,105.002,69.115,104.926,69.115,104.838z
			 M69.115,105.607c0-0.09-0.033-0.165-0.096-0.228c-0.064-0.063-0.14-0.094-0.227-0.094c-0.088,0-0.164,0.03-0.225,0.094
			c-0.06,0.062-0.09,0.138-0.09,0.228c0,0.094,0.03,0.168,0.09,0.227c0.061,0.06,0.137,0.089,0.225,0.089
			c0.087,0,0.162-0.029,0.227-0.089C69.082,105.775,69.115,105.701,69.115,105.607z M69.841,103.59c0-0.092-0.03-0.171-0.094-0.231
			s-0.14-0.091-0.228-0.091c-0.094,0-0.17,0.03-0.228,0.091s-0.087,0.14-0.087,0.231c0,0.083,0.03,0.156,0.092,0.224
			c0.061,0.066,0.135,0.1,0.223,0.1s0.164-0.032,0.228-0.095C69.811,103.755,69.841,103.678,69.841,103.59z M69.893,101.697
			c0-0.094-0.032-0.172-0.096-0.232s-0.141-0.091-0.228-0.091c-0.088,0-0.163,0.03-0.224,0.091s-0.09,0.139-0.09,0.232
			c0,0.088,0.029,0.162,0.09,0.223s0.136,0.092,0.224,0.092c0.083,0,0.157-0.031,0.222-0.092
			C69.859,101.859,69.893,101.785,69.893,101.697z M69.934,105.607c0-0.09-0.03-0.165-0.093-0.228
			c-0.06-0.063-0.136-0.094-0.23-0.094c-0.088,0-0.163,0.03-0.224,0.094c-0.061,0.062-0.09,0.138-0.09,0.228
			c0,0.094,0.029,0.168,0.09,0.227c0.061,0.06,0.136,0.089,0.224,0.089c0.095,0,0.171-0.029,0.23-0.089
			C69.903,105.775,69.934,105.701,69.934,105.607z M69.578,103.036c0.219,0,0.373-0.028,0.458-0.083
			c0.085-0.056,0.128-0.154,0.128-0.299c0-0.152-0.047-0.255-0.145-0.309c-0.097-0.052-0.244-0.078-0.441-0.078V103.036z
			 M69.785,105.02c0.125,0,0.229-0.037,0.309-0.111c0.08-0.073,0.121-0.174,0.121-0.302c0-0.276-0.178-0.414-0.53-0.414h-0.106
			v0.827H69.785z M70.289,103.896c0.088,0,0.162-0.031,0.223-0.092s0.09-0.139,0.09-0.231c0-0.089-0.029-0.162-0.09-0.224
			c-0.061-0.061-0.135-0.09-0.223-0.09c-0.095,0-0.17,0.029-0.232,0.09c-0.061,0.062-0.092,0.135-0.092,0.224
			c0,0.093,0.031,0.171,0.092,0.231C70.119,103.865,70.194,103.896,70.289,103.896z M70.652,101.787c0-0.088-0.03-0.162-0.092-0.227
			c-0.06-0.062-0.135-0.096-0.222-0.096c-0.089,0-0.165,0.031-0.228,0.092c-0.063,0.061-0.096,0.138-0.096,0.23
			c0,0.09,0.032,0.163,0.096,0.225c0.062,0.061,0.139,0.09,0.228,0.09c0.093,0,0.169-0.029,0.226-0.09
			C70.623,101.95,70.652,101.877,70.652,101.787z M70.751,105.458c0-0.093-0.032-0.171-0.095-0.231
			c-0.063-0.061-0.139-0.09-0.229-0.09c-0.093,0-0.168,0.029-0.227,0.09c-0.057,0.061-0.086,0.139-0.086,0.231
			c0,0.089,0.029,0.164,0.086,0.228c0.059,0.062,0.134,0.095,0.227,0.095c0.09,0,0.165-0.032,0.229-0.095
			C70.719,105.622,70.751,105.547,70.751,105.458z M71.141,103.021c0-0.095-0.032-0.173-0.096-0.231
			c-0.063-0.061-0.139-0.092-0.227-0.092c-0.09,0-0.164,0.029-0.223,0.088c-0.062,0.057-0.093,0.133-0.093,0.226
			c0,0.089,0.03,0.165,0.093,0.231c0.059,0.066,0.133,0.1,0.223,0.1c0.088,0,0.163-0.033,0.227-0.1S71.141,103.102,71.141,103.021z
			 M71.189,104.094c0-0.093-0.031-0.169-0.09-0.229c-0.062-0.057-0.139-0.085-0.232-0.085c-0.082,0-0.156,0.029-0.219,0.091
			c-0.064,0.061-0.096,0.135-0.096,0.223s0.03,0.164,0.092,0.229c0.061,0.062,0.134,0.096,0.223,0.096
			c0.094,0,0.17-0.033,0.232-0.096C71.158,104.258,71.189,104.182,71.189,104.094z M70.9,102.605c0.088,0,0.162-0.033,0.224-0.098
			c0.061-0.068,0.091-0.141,0.091-0.225c0-0.087-0.03-0.163-0.091-0.227c-0.062-0.063-0.136-0.096-0.224-0.096
			s-0.164,0.032-0.228,0.096s-0.095,0.14-0.095,0.227c0,0.09,0.031,0.165,0.095,0.229C70.736,102.574,70.812,102.605,70.9,102.605z
			 M71.279,104.861c0-0.094-0.031-0.167-0.094-0.225c-0.064-0.059-0.139-0.088-0.227-0.088c-0.095,0-0.171,0.029-0.229,0.088
			c-0.058,0.058-0.086,0.131-0.086,0.225c0,0.09,0.028,0.166,0.086,0.228c0.058,0.065,0.134,0.096,0.229,0.096
			c0.088,0,0.162-0.03,0.227-0.096C71.248,105.027,71.279,104.951,71.279,104.861z"/>
		<path fill="#FFFFFF" d="M74.686,106.277l-0.752-1.456v1.456h-1.611v-5.2h1.975c0.299,0,0.57,0.042,0.814,0.124
			c0.246,0.082,0.454,0.198,0.629,0.348c0.175,0.148,0.307,0.33,0.4,0.545c0.095,0.215,0.141,0.454,0.141,0.719
			c0,0.363-0.084,0.671-0.256,0.923c-0.17,0.251-0.406,0.419-0.702,0.507l1.313,2.035H74.686z M73.43,101.738
			c0-0.088-0.028-0.164-0.088-0.228c-0.056-0.063-0.133-0.095-0.225-0.095c-0.09,0-0.166,0.031-0.229,0.095
			c-0.063,0.063-0.096,0.14-0.096,0.228s0.032,0.162,0.096,0.223c0.062,0.062,0.139,0.092,0.229,0.092
			c0.092,0,0.169-0.03,0.225-0.092C73.401,101.9,73.43,101.826,73.43,101.738z M73.117,102.821c0.092,0,0.169-0.03,0.225-0.091
			c0.06-0.061,0.088-0.139,0.088-0.232c0-0.087-0.028-0.164-0.088-0.227c-0.056-0.063-0.133-0.096-0.225-0.096
			c-0.09,0-0.166,0.032-0.229,0.096c-0.063,0.062-0.096,0.14-0.096,0.227c0,0.094,0.032,0.172,0.096,0.232
			C72.951,102.791,73.027,102.821,73.117,102.821z M73.117,103.59c0.092,0,0.169-0.031,0.225-0.096
			c0.06-0.062,0.088-0.138,0.088-0.227c0-0.094-0.028-0.169-0.088-0.227c-0.056-0.059-0.133-0.088-0.225-0.088
			c-0.09,0-0.166,0.029-0.229,0.088c-0.063,0.058-0.096,0.133-0.096,0.227c0,0.089,0.032,0.164,0.096,0.227
			C72.951,103.559,73.027,103.59,73.117,103.59z M73.43,104.037c0-0.088-0.028-0.165-0.088-0.229
			c-0.056-0.062-0.133-0.095-0.225-0.095c-0.09,0-0.166,0.032-0.229,0.095c-0.063,0.063-0.096,0.141-0.096,0.229
			s0.032,0.162,0.096,0.223c0.062,0.062,0.139,0.091,0.229,0.091c0.092,0,0.169-0.029,0.225-0.091
			C73.401,104.199,73.43,104.125,73.43,104.037z M73.117,105.119c0.092,0,0.169-0.03,0.225-0.09c0.06-0.062,0.088-0.139,0.088-0.232
			c0-0.088-0.028-0.164-0.088-0.227c-0.056-0.064-0.133-0.097-0.225-0.097c-0.09,0-0.166,0.032-0.229,0.097
			c-0.063,0.062-0.096,0.139-0.096,0.227c0,0.094,0.032,0.171,0.096,0.232C72.951,105.089,73.027,105.119,73.117,105.119z
			 M73.117,105.889c0.092,0,0.169-0.033,0.225-0.096c0.06-0.063,0.088-0.139,0.088-0.229c0-0.088-0.028-0.161-0.088-0.223
			c-0.056-0.061-0.133-0.09-0.225-0.09c-0.09,0-0.166,0.029-0.229,0.09c-0.063,0.062-0.096,0.135-0.096,0.223
			c0,0.09,0.032,0.165,0.096,0.229C72.951,105.855,73.027,105.889,73.117,105.889z M73.811,104.316c0.088,0,0.161-0.029,0.223-0.091
			c0.061-0.06,0.092-0.136,0.092-0.231c0-0.087-0.031-0.161-0.092-0.223c-0.062-0.061-0.135-0.091-0.223-0.091
			c-0.095,0-0.172,0.03-0.231,0.091c-0.062,0.062-0.092,0.136-0.092,0.223c0,0.096,0.03,0.172,0.092,0.231
			C73.639,104.287,73.716,104.316,73.811,104.316z M74.207,101.723c0-0.089-0.029-0.163-0.087-0.225
			c-0.058-0.061-0.134-0.09-0.228-0.09c-0.088,0-0.164,0.029-0.227,0.087c-0.064,0.057-0.096,0.13-0.096,0.218
			c0,0.089,0.031,0.165,0.096,0.229c0.062,0.062,0.139,0.094,0.227,0.094s0.162-0.031,0.223-0.094
			C74.176,101.878,74.207,101.805,74.207,101.723z M74.108,103.35c0.356,0,0.536-0.162,0.536-0.486c0-0.31-0.189-0.463-0.57-0.463
			h-0.141v0.949H74.108z M74.876,103.994c0-0.094-0.031-0.168-0.095-0.227c-0.064-0.058-0.139-0.087-0.228-0.087
			c-0.082,0-0.156,0.03-0.218,0.091c-0.064,0.062-0.096,0.136-0.096,0.223c0,0.09,0.03,0.164,0.091,0.229
			c0.062,0.062,0.134,0.094,0.223,0.094s0.163-0.031,0.228-0.094C74.845,104.158,74.876,104.084,74.876,103.994z M74.976,101.764
			c0-0.083-0.033-0.158-0.1-0.225c-0.065-0.064-0.14-0.098-0.223-0.098c-0.089,0-0.163,0.03-0.223,0.096
			c-0.062,0.062-0.092,0.138-0.092,0.227c0,0.094,0.03,0.171,0.092,0.23c0.06,0.062,0.134,0.091,0.223,0.091
			c0.088,0,0.164-0.028,0.228-0.091C74.944,101.935,74.976,101.857,74.976,101.764z M75.182,104.797c0-0.094-0.031-0.17-0.09-0.232
			c-0.061-0.06-0.139-0.091-0.231-0.091c-0.083,0-0.155,0.032-0.22,0.097c-0.062,0.062-0.094,0.139-0.094,0.227
			c0,0.09,0.029,0.164,0.089,0.229c0.062,0.062,0.136,0.094,0.225,0.094c0.093,0,0.171-0.032,0.231-0.094
			C75.15,104.961,75.182,104.887,75.182,104.797z M75.166,103.887c0.088,0,0.161-0.031,0.223-0.094
			c0.061-0.062,0.092-0.14,0.092-0.229c0-0.088-0.031-0.162-0.092-0.223c-0.062-0.061-0.135-0.091-0.223-0.091
			c-0.089,0-0.163,0.032-0.229,0.095c-0.063,0.064-0.094,0.137-0.094,0.219c0,0.089,0.029,0.166,0.091,0.229
			C74.994,103.855,75.071,103.887,75.166,103.887z M75.572,105.583c0-0.094-0.033-0.171-0.097-0.232
			c-0.063-0.06-0.14-0.091-0.228-0.091s-0.162,0.032-0.223,0.095c-0.061,0.064-0.091,0.14-0.091,0.229
			c0,0.087,0.028,0.164,0.086,0.226c0.058,0.064,0.134,0.096,0.228,0.096c0.088,0,0.164-0.031,0.228-0.096
			C75.539,105.747,75.572,105.67,75.572,105.583z M75.612,102.185c0-0.089-0.031-0.162-0.095-0.224
			c-0.064-0.061-0.141-0.09-0.228-0.09c-0.089,0-0.163,0.029-0.224,0.09c-0.061,0.062-0.091,0.135-0.091,0.224
			c0,0.094,0.03,0.172,0.091,0.231c0.061,0.061,0.135,0.092,0.224,0.092c0.087,0,0.163-0.033,0.228-0.096
			C75.581,102.35,75.612,102.272,75.612,102.185z M75.455,103.201c0.083,0,0.155-0.031,0.219-0.096
			c0.064-0.063,0.096-0.137,0.096-0.227c0-0.088-0.03-0.162-0.092-0.225c-0.06-0.059-0.135-0.09-0.223-0.09s-0.164,0.03-0.229,0.088
			c-0.062,0.057-0.094,0.133-0.094,0.227c0,0.09,0.031,0.163,0.094,0.227C75.291,103.17,75.367,103.201,75.455,103.201z"/>
		<path fill="#FFFFFF" d="M82.094,103.681c0,0.393-0.071,0.751-0.212,1.079c-0.14,0.327-0.333,0.611-0.578,0.853
			c-0.245,0.238-0.536,0.426-0.872,0.561c-0.336,0.136-0.697,0.203-1.084,0.203c-0.39,0-0.753-0.067-1.086-0.203
			c-0.334-0.135-0.623-0.322-0.868-0.561c-0.245-0.241-0.438-0.525-0.579-0.853c-0.141-0.328-0.209-0.687-0.209-1.079
			c0-0.397,0.066-0.76,0.206-1.091c0.138-0.33,0.327-0.615,0.573-0.855c0.246-0.239,0.537-0.426,0.873-0.559
			c0.335-0.133,0.7-0.197,1.09-0.197c0.387,0,0.745,0.067,1.08,0.201c0.332,0.136,0.624,0.323,0.871,0.562
			c0.249,0.24,0.443,0.525,0.583,0.855C82.022,102.929,82.094,103.289,82.094,103.681z M77.736,103.681
			c0-0.093-0.031-0.171-0.094-0.231c-0.064-0.061-0.141-0.091-0.229-0.091c-0.094,0-0.17,0.03-0.229,0.091
			c-0.057,0.061-0.086,0.139-0.086,0.231c0,0.089,0.029,0.163,0.086,0.224c0.059,0.061,0.135,0.09,0.229,0.09
			c0.088,0,0.164-0.029,0.229-0.09C77.705,103.844,77.736,103.77,77.736,103.681z M77.844,104.418c0-0.095-0.032-0.172-0.094-0.232
			c-0.064-0.061-0.141-0.092-0.228-0.092c-0.089,0-0.165,0.031-0.229,0.092s-0.095,0.138-0.095,0.232c0,0.082,0.033,0.155,0.1,0.221
			c0.066,0.066,0.141,0.1,0.224,0.1c0.087,0,0.163-0.031,0.228-0.094C77.812,104.581,77.844,104.505,77.844,104.418z M77.539,103.26
			c0.088,0,0.162-0.032,0.223-0.096c0.061-0.062,0.09-0.139,0.09-0.228c0-0.094-0.029-0.171-0.09-0.231s-0.135-0.09-0.223-0.09
			c-0.09,0-0.164,0.029-0.228,0.09s-0.095,0.138-0.095,0.231c0,0.084,0.031,0.157,0.095,0.224
			C77.375,103.226,77.449,103.26,77.539,103.26z M78.249,102.309c0-0.088-0.031-0.164-0.095-0.227
			c-0.064-0.063-0.139-0.096-0.228-0.096s-0.163,0.032-0.224,0.096c-0.061,0.062-0.091,0.139-0.091,0.227s0.03,0.162,0.091,0.223
			s0.135,0.092,0.224,0.092s0.163-0.031,0.228-0.092C78.218,102.471,78.249,102.396,78.249,102.309z M78.249,105.053
			c0-0.088-0.031-0.162-0.095-0.223c-0.064-0.062-0.139-0.092-0.228-0.092s-0.163,0.029-0.224,0.092
			c-0.061,0.061-0.091,0.135-0.091,0.223s0.03,0.164,0.091,0.228s0.135,0.095,0.224,0.095s0.163-0.033,0.228-0.099
			C78.218,105.21,78.249,105.137,78.249,105.053z M79.348,104.913c0.337,0,0.609-0.107,0.819-0.318
			c0.21-0.212,0.313-0.517,0.313-0.914s-0.104-0.702-0.313-0.918c-0.21-0.215-0.482-0.323-0.819-0.323
			c-0.348,0-0.623,0.107-0.826,0.32c-0.203,0.211-0.307,0.519-0.307,0.921c0,0.397,0.104,0.702,0.307,0.914
			C78.725,104.806,79,104.913,79.348,104.913z M78.885,101.896c0-0.088-0.031-0.163-0.094-0.228
			c-0.062-0.062-0.14-0.096-0.229-0.096c-0.092,0-0.17,0.033-0.23,0.096c-0.061,0.064-0.09,0.14-0.09,0.228
			c0,0.089,0.029,0.165,0.09,0.228c0.061,0.063,0.139,0.095,0.23,0.095c0.083,0,0.158-0.033,0.225-0.099
			C78.853,102.053,78.885,101.979,78.885,101.896z M78.885,105.466c0-0.089-0.031-0.163-0.094-0.227s-0.14-0.095-0.229-0.095
			c-0.092,0-0.17,0.031-0.23,0.095s-0.09,0.138-0.09,0.227c0,0.088,0.029,0.164,0.09,0.225c0.061,0.06,0.139,0.09,0.23,0.09
			c0.083,0,0.158-0.03,0.225-0.09C78.853,105.63,78.885,105.554,78.885,105.466z M79.348,102.02c0.094,0,0.171-0.031,0.229-0.092
			c0.059-0.06,0.086-0.137,0.086-0.23c0-0.089-0.027-0.162-0.086-0.223c-0.058-0.062-0.135-0.092-0.229-0.092
			c-0.082,0-0.156,0.031-0.221,0.096c-0.068,0.063-0.102,0.137-0.102,0.219c0,0.094,0.033,0.171,0.096,0.23
			C79.184,101.988,79.261,102.02,79.348,102.02z M79.348,105.971c0.094,0,0.171-0.032,0.229-0.096
			c0.059-0.063,0.086-0.138,0.086-0.226c0-0.089-0.027-0.165-0.086-0.225c-0.058-0.06-0.135-0.092-0.229-0.092
			c-0.087,0-0.164,0.032-0.227,0.092s-0.096,0.136-0.096,0.225c0,0.088,0.033,0.162,0.096,0.226S79.261,105.971,79.348,105.971z
			 M80.134,102.218c0.094,0,0.169-0.031,0.228-0.095c0.059-0.062,0.086-0.139,0.086-0.228c0-0.088-0.027-0.163-0.086-0.228
			c-0.059-0.062-0.134-0.096-0.228-0.096c-0.088,0-0.164,0.033-0.228,0.096c-0.062,0.064-0.096,0.14-0.096,0.228
			c0,0.083,0.034,0.157,0.1,0.224C79.977,102.185,80.052,102.218,80.134,102.218z M80.447,105.466c0-0.089-0.027-0.163-0.086-0.227
			s-0.134-0.095-0.228-0.095c-0.088,0-0.164,0.031-0.228,0.095c-0.062,0.063-0.096,0.138-0.096,0.227c0,0.088,0.034,0.164,0.1,0.225
			c0.066,0.06,0.142,0.09,0.224,0.09c0.094,0,0.169-0.03,0.228-0.09C80.42,105.63,80.447,105.554,80.447,105.466z M81.085,102.309
			c0-0.088-0.032-0.164-0.096-0.227c-0.063-0.063-0.138-0.096-0.228-0.096c-0.088,0-0.162,0.032-0.223,0.096
			c-0.061,0.062-0.092,0.139-0.092,0.227s0.033,0.162,0.096,0.223c0.063,0.061,0.137,0.092,0.219,0.092
			c0.09,0,0.164-0.031,0.228-0.092S81.085,102.396,81.085,102.309z M81.085,105.053c0-0.088-0.032-0.162-0.096-0.223
			c-0.063-0.062-0.138-0.092-0.228-0.092c-0.088,0-0.162,0.029-0.223,0.092c-0.061,0.061-0.092,0.135-0.092,0.223
			c0,0.084,0.033,0.157,0.096,0.224c0.063,0.065,0.137,0.099,0.219,0.099c0.09,0,0.164-0.031,0.228-0.095
			S81.085,105.141,81.085,105.053z M81.481,102.937c0-0.094-0.032-0.171-0.095-0.231c-0.063-0.061-0.14-0.09-0.229-0.09
			c-0.088,0-0.164,0.029-0.227,0.09c-0.063,0.061-0.095,0.138-0.095,0.231c0,0.089,0.031,0.165,0.095,0.228
			c0.062,0.063,0.139,0.096,0.227,0.096c0.084,0,0.158-0.034,0.225-0.1C81.448,103.094,81.481,103.021,81.481,102.937z
			 M81.176,104.738c0.082,0,0.155-0.033,0.219-0.1c0.063-0.065,0.096-0.139,0.096-0.221c0-0.095-0.031-0.172-0.092-0.232
			s-0.135-0.092-0.223-0.092c-0.09,0-0.164,0.031-0.227,0.092c-0.064,0.061-0.097,0.138-0.097,0.232
			c0,0.087,0.032,0.163,0.097,0.227C81.012,104.707,81.086,104.738,81.176,104.738z M81.598,103.681
			c0-0.093-0.032-0.171-0.091-0.231c-0.062-0.061-0.138-0.091-0.231-0.091c-0.088,0-0.164,0.03-0.224,0.091
			c-0.062,0.061-0.091,0.139-0.091,0.231c0,0.089,0.029,0.163,0.091,0.224c0.06,0.061,0.136,0.09,0.224,0.09
			c0.094,0,0.17-0.029,0.231-0.09C81.565,103.844,81.598,103.77,81.598,103.681z"/>
		<path fill="#FFFFFF" d="M85.639,106.277l-0.165-0.547h-1.645l-0.173,0.547h-1.713l1.803-5.2h1.785l1.812,5.2H85.639z
			 M83.25,105.69c0-0.083-0.033-0.156-0.099-0.219c-0.067-0.064-0.141-0.097-0.224-0.097c-0.094,0-0.17,0.031-0.227,0.091
			c-0.059,0.062-0.088,0.136-0.088,0.225c0,0.093,0.029,0.169,0.088,0.232c0.057,0.059,0.133,0.09,0.227,0.09
			c0.089,0,0.165-0.031,0.228-0.09C83.219,105.859,83.25,105.783,83.25,105.69z M83.482,105.036c0-0.089-0.034-0.163-0.1-0.228
			c-0.067-0.062-0.141-0.094-0.224-0.094c-0.087,0-0.163,0.031-0.228,0.09c-0.062,0.061-0.095,0.137-0.095,0.231
			c0,0.089,0.032,0.162,0.095,0.224c0.064,0.062,0.141,0.091,0.228,0.091c0.088,0,0.165-0.029,0.228-0.091
			C83.45,105.198,83.482,105.125,83.482,105.036z M83.705,104.367c0-0.083-0.031-0.156-0.096-0.225
			c-0.062-0.064-0.139-0.098-0.227-0.098c-0.089,0-0.163,0.031-0.224,0.094c-0.06,0.065-0.091,0.14-0.091,0.229
			s0.031,0.164,0.091,0.228c0.061,0.062,0.135,0.095,0.224,0.095c0.088,0,0.164-0.032,0.227-0.095
			C83.674,104.531,83.705,104.456,83.705,104.367z M83.936,103.697c0-0.082-0.03-0.156-0.094-0.224
			c-0.064-0.065-0.141-0.099-0.228-0.099c-0.089,0-0.162,0.031-0.223,0.095c-0.062,0.063-0.092,0.14-0.092,0.228
			s0.03,0.164,0.092,0.228c0.061,0.063,0.134,0.096,0.223,0.096c0.087,0,0.163-0.032,0.228-0.096
			C83.905,103.861,83.936,103.785,83.936,103.697z M84.169,103.036c0-0.083-0.032-0.157-0.097-0.224
			c-0.063-0.065-0.139-0.1-0.227-0.1s-0.162,0.033-0.224,0.096c-0.06,0.063-0.092,0.139-0.092,0.228s0.032,0.165,0.092,0.228
			c0.062,0.063,0.136,0.095,0.224,0.095s0.163-0.031,0.227-0.095C84.137,103.201,84.169,103.125,84.169,103.036z M84.201,105.061
			c0-0.088-0.031-0.163-0.096-0.226c-0.062-0.065-0.139-0.097-0.227-0.097c-0.089,0-0.164,0.031-0.223,0.097
			c-0.062,0.062-0.092,0.138-0.092,0.226c0,0.09,0.03,0.165,0.092,0.228c0.059,0.062,0.134,0.096,0.223,0.096
			c0.088,0,0.164-0.029,0.227-0.091C84.17,105.232,84.201,105.154,84.201,105.061z M84.391,102.367c0-0.084-0.031-0.158-0.095-0.223
			c-0.063-0.067-0.139-0.102-0.228-0.102c-0.088,0-0.162,0.033-0.223,0.096c-0.061,0.063-0.091,0.14-0.091,0.229
			c0,0.088,0.03,0.164,0.091,0.228s0.135,0.095,0.223,0.095c0.089,0,0.164-0.031,0.228-0.095S84.391,102.455,84.391,102.367z
			 M84.291,102.028c0.089,0,0.164-0.031,0.224-0.092c0.062-0.06,0.092-0.138,0.092-0.231c0-0.083-0.032-0.155-0.096-0.22
			c-0.063-0.063-0.136-0.095-0.22-0.095c-0.093,0-0.17,0.03-0.23,0.092c-0.061,0.061-0.09,0.135-0.09,0.223
			c0,0.094,0.029,0.172,0.09,0.231C84.121,101.997,84.198,102.028,84.291,102.028z M84.639,102.921l-0.438,1.512h0.885
			L84.639,102.921z M84.945,105.061c0-0.088-0.031-0.163-0.092-0.226c-0.06-0.065-0.137-0.097-0.23-0.097
			c-0.089,0-0.164,0.031-0.227,0.097c-0.064,0.062-0.097,0.138-0.097,0.226c0,0.09,0.034,0.165,0.1,0.228s0.142,0.096,0.224,0.096
			c0.094,0,0.171-0.029,0.23-0.091C84.914,105.232,84.945,105.154,84.945,105.061z M84.994,102.028c0.088,0,0.164-0.031,0.224-0.092
			c0.061-0.06,0.091-0.138,0.091-0.231c0-0.083-0.031-0.155-0.095-0.22c-0.064-0.063-0.138-0.095-0.22-0.095
			c-0.088,0-0.164,0.03-0.227,0.092c-0.064,0.061-0.096,0.135-0.096,0.223c0,0.094,0.031,0.172,0.096,0.231
			C84.83,101.997,84.906,102.028,84.994,102.028z M85.499,102.375c0-0.088-0.031-0.164-0.096-0.227
			c-0.063-0.064-0.139-0.096-0.228-0.096c-0.088,0-0.162,0.031-0.223,0.096c-0.061,0.062-0.09,0.139-0.09,0.227
			s0.027,0.163,0.086,0.227c0.058,0.064,0.133,0.096,0.227,0.096c0.089,0,0.164-0.031,0.228-0.096
			C85.468,102.538,85.499,102.463,85.499,102.375z M85.392,105.384c0.088,0,0.161-0.029,0.223-0.091
			c0.061-0.061,0.091-0.139,0.091-0.232c0-0.088-0.03-0.163-0.091-0.226c-0.062-0.065-0.135-0.097-0.223-0.097
			s-0.165,0.031-0.228,0.097c-0.063,0.062-0.096,0.138-0.096,0.226c0,0.09,0.032,0.165,0.096,0.228
			C85.227,105.351,85.304,105.384,85.392,105.384z M85.73,103.044c0-0.095-0.033-0.17-0.096-0.231
			c-0.063-0.061-0.139-0.091-0.227-0.091c-0.09,0-0.165,0.032-0.227,0.095c-0.064,0.064-0.096,0.141-0.096,0.228
			c0,0.089,0.03,0.163,0.09,0.224c0.061,0.061,0.139,0.091,0.232,0.091c0.088,0,0.163-0.03,0.227-0.091
			C85.697,103.207,85.73,103.133,85.73,103.044z M85.639,104.021c0.088,0,0.162-0.03,0.224-0.091
			c0.062-0.062,0.091-0.139,0.091-0.232c0-0.088-0.029-0.162-0.091-0.224c-0.062-0.061-0.136-0.09-0.224-0.09
			c-0.087,0-0.164,0.029-0.228,0.09c-0.062,0.062-0.095,0.136-0.095,0.224c0,0.094,0.032,0.171,0.095,0.232
			C85.475,103.99,85.552,104.021,85.639,104.021z M86.185,104.367c0-0.083-0.032-0.156-0.095-0.225
			c-0.062-0.064-0.139-0.098-0.228-0.098c-0.088,0-0.162,0.031-0.224,0.094c-0.06,0.065-0.091,0.14-0.091,0.229
			s0.031,0.164,0.091,0.228c0.062,0.062,0.136,0.095,0.224,0.095c0.089,0,0.165-0.032,0.228-0.095
			C86.152,104.531,86.185,104.456,86.185,104.367z M86.416,105.036c0-0.089-0.032-0.163-0.1-0.228
			c-0.064-0.062-0.14-0.094-0.222-0.094c-0.089,0-0.163,0.031-0.224,0.09c-0.061,0.061-0.092,0.137-0.092,0.231
			c0,0.089,0.031,0.162,0.092,0.224s0.135,0.091,0.224,0.091c0.087,0,0.163-0.029,0.227-0.091S86.416,105.125,86.416,105.036z
			 M86.641,105.69c0-0.089-0.032-0.163-0.092-0.225c-0.061-0.06-0.139-0.091-0.232-0.091c-0.082,0-0.156,0.032-0.222,0.097
			c-0.067,0.062-0.101,0.136-0.101,0.219c0,0.093,0.033,0.169,0.096,0.232c0.062,0.059,0.14,0.09,0.227,0.09
			c0.094,0,0.172-0.031,0.232-0.09C86.608,105.859,86.641,105.783,86.641,105.69z"/>
		<path fill="#FFFFFF" d="M87.689,106.277v-5.217h1.438c0.381,0,0.74,0.054,1.082,0.162c0.344,0.107,0.641,0.268,0.895,0.479
			c0.254,0.212,0.455,0.479,0.602,0.803c0.15,0.322,0.225,0.697,0.225,1.128c0,0.362-0.057,0.706-0.17,1.028
			s-0.285,0.604-0.516,0.844c-0.232,0.24-0.523,0.429-0.877,0.565c-0.354,0.139-0.768,0.208-1.24,0.208H87.689z M88.798,101.738
			c0-0.088-0.029-0.164-0.088-0.228c-0.058-0.063-0.133-0.095-0.228-0.095c-0.088,0-0.163,0.031-0.228,0.095
			c-0.062,0.063-0.094,0.14-0.094,0.228s0.031,0.162,0.094,0.223c0.064,0.062,0.14,0.092,0.228,0.092c0.095,0,0.17-0.03,0.228-0.092
			C88.769,101.9,88.798,101.826,88.798,101.738z M88.482,102.821c0.095,0,0.17-0.03,0.228-0.091
			c0.059-0.061,0.088-0.139,0.088-0.232c0-0.087-0.029-0.164-0.088-0.227c-0.058-0.063-0.133-0.096-0.228-0.096
			c-0.088,0-0.163,0.032-0.228,0.096c-0.062,0.062-0.094,0.14-0.094,0.227c0,0.094,0.031,0.172,0.094,0.232
			C88.319,102.791,88.395,102.821,88.482,102.821z M88.482,103.59c0.095,0,0.17-0.031,0.228-0.096
			c0.059-0.062,0.088-0.138,0.088-0.227c0-0.094-0.029-0.169-0.088-0.227c-0.058-0.059-0.133-0.088-0.228-0.088
			c-0.088,0-0.163,0.029-0.228,0.088c-0.062,0.058-0.094,0.133-0.094,0.227c0,0.089,0.031,0.164,0.094,0.227
			C88.319,103.559,88.395,103.59,88.482,103.59z M88.798,104.037c0-0.088-0.029-0.165-0.088-0.229
			c-0.058-0.062-0.133-0.095-0.228-0.095c-0.088,0-0.163,0.032-0.228,0.095c-0.062,0.063-0.094,0.141-0.094,0.229
			s0.031,0.162,0.094,0.223c0.064,0.062,0.14,0.091,0.228,0.091c0.095,0,0.17-0.029,0.228-0.091
			C88.769,104.199,88.798,104.125,88.798,104.037z M88.482,105.119c0.095,0,0.17-0.03,0.228-0.09
			c0.059-0.062,0.088-0.139,0.088-0.232c0-0.088-0.029-0.164-0.088-0.227c-0.058-0.064-0.133-0.097-0.228-0.097
			c-0.088,0-0.163,0.032-0.228,0.097c-0.062,0.062-0.094,0.139-0.094,0.227c0,0.094,0.031,0.171,0.094,0.232
			C88.319,105.089,88.395,105.119,88.482,105.119z M88.482,105.889c0.095,0,0.17-0.033,0.228-0.096
			c0.059-0.063,0.088-0.139,0.088-0.229c0-0.088-0.029-0.161-0.088-0.223c-0.058-0.061-0.133-0.09-0.228-0.09
			c-0.088,0-0.163,0.029-0.228,0.09c-0.062,0.062-0.094,0.135-0.094,0.223c0,0.09,0.031,0.165,0.094,0.229
			C88.319,105.855,88.395,105.889,88.482,105.889z M89.523,101.697c0-0.089-0.029-0.162-0.09-0.223
			c-0.062-0.062-0.139-0.092-0.232-0.092c-0.082,0-0.156,0.031-0.221,0.096c-0.067,0.063-0.101,0.137-0.101,0.219
			c0,0.094,0.033,0.171,0.095,0.23c0.062,0.061,0.139,0.092,0.227,0.092c0.094,0,0.17-0.031,0.232-0.092
			C89.494,101.868,89.523,101.791,89.523,101.697z M89.523,105.649c0-0.089-0.029-0.165-0.09-0.225
			c-0.062-0.06-0.139-0.092-0.232-0.092c-0.088,0-0.164,0.032-0.227,0.092c-0.062,0.06-0.095,0.136-0.095,0.225
			c0,0.088,0.033,0.162,0.095,0.226c0.062,0.063,0.139,0.096,0.227,0.096c0.094,0,0.17-0.032,0.232-0.096
			C89.494,105.812,89.523,105.737,89.523,105.649z M89.193,104.913c0.363,0,0.641-0.108,0.836-0.323
			c0.191-0.215,0.287-0.52,0.287-0.917c0-0.833-0.373-1.249-1.123-1.249V104.913z M90.012,102.218c0.088,0,0.162-0.033,0.223-0.099
			c0.061-0.066,0.09-0.141,0.09-0.224c0-0.088-0.029-0.163-0.09-0.228c-0.061-0.062-0.135-0.096-0.223-0.096
			s-0.164,0.033-0.229,0.096c-0.061,0.064-0.094,0.14-0.094,0.228c0,0.089,0.033,0.165,0.094,0.228
			C89.848,102.187,89.924,102.218,90.012,102.218z M90.324,105.466c0-0.089-0.029-0.163-0.09-0.227s-0.135-0.095-0.223-0.095
			s-0.164,0.031-0.229,0.095c-0.061,0.063-0.094,0.138-0.094,0.227c0,0.088,0.033,0.164,0.094,0.225
			c0.064,0.06,0.141,0.09,0.229,0.09s0.162-0.03,0.223-0.09C90.295,105.63,90.324,105.554,90.324,105.466z M90.912,102.35
			c0-0.088-0.031-0.162-0.096-0.223c-0.062-0.061-0.139-0.092-0.227-0.092s-0.162,0.031-0.227,0.092s-0.096,0.135-0.096,0.223
			c0,0.089,0.031,0.163,0.096,0.229c0.064,0.062,0.139,0.094,0.227,0.094c0.082,0,0.158-0.031,0.225-0.094
			C90.881,102.513,90.912,102.438,90.912,102.35z M90.912,105.002c0-0.087-0.031-0.161-0.096-0.221
			c-0.062-0.061-0.139-0.092-0.227-0.092s-0.162,0.031-0.227,0.092c-0.064,0.06-0.096,0.134-0.096,0.221
			c0,0.09,0.031,0.165,0.096,0.229s0.139,0.096,0.227,0.096c0.082,0,0.158-0.033,0.225-0.1
			C90.881,105.161,90.912,105.086,90.912,105.002z M90.996,103.283c0.088,0,0.162-0.031,0.223-0.094
			c0.061-0.063,0.092-0.139,0.092-0.229c0-0.093-0.031-0.168-0.092-0.226c-0.061-0.059-0.135-0.087-0.223-0.087
			c-0.094,0-0.172,0.028-0.232,0.087c-0.061,0.058-0.092,0.133-0.092,0.226c0,0.09,0.031,0.165,0.092,0.229
			C90.824,103.252,90.902,103.283,90.996,103.283z M90.996,104.723c0.088,0,0.162-0.03,0.223-0.096
			c0.061-0.062,0.092-0.139,0.092-0.227c0-0.094-0.031-0.17-0.092-0.229c-0.061-0.057-0.135-0.086-0.223-0.086
			c-0.094,0-0.172,0.029-0.232,0.086c-0.061,0.059-0.092,0.135-0.092,0.229c0,0.088,0.031,0.164,0.092,0.227
			C90.824,104.692,90.902,104.723,90.996,104.723z M91.441,103.681c0-0.087-0.029-0.163-0.092-0.227
			c-0.059-0.063-0.133-0.096-0.223-0.096c-0.088,0-0.164,0.03-0.225,0.091c-0.064,0.061-0.098,0.139-0.098,0.231
			c0,0.089,0.033,0.163,0.098,0.224c0.061,0.061,0.137,0.09,0.225,0.09c0.09,0,0.164-0.029,0.223-0.09
			C91.412,103.844,91.441,103.77,91.441,103.681z"/>
		<path fill="#FFFFFF" d="M96.268,106.277l-0.66-2.521l-0.693,2.521h-1.463l-1.646-5.2h1.721l0.688,2.794l0.701-2.794h1.43
			l0.686,2.794l0.695-2.794h1.645l-1.645,5.2H96.268z M93.152,101.656c0-0.089-0.031-0.162-0.094-0.225
			c-0.064-0.06-0.141-0.091-0.229-0.091c-0.094,0-0.17,0.031-0.227,0.091c-0.059,0.062-0.088,0.136-0.088,0.225
			c0,0.088,0.029,0.163,0.088,0.227c0.057,0.063,0.133,0.096,0.227,0.096c0.088,0,0.164-0.032,0.229-0.096
			C93.121,101.819,93.152,101.744,93.152,101.656z M93.359,102.324c0-0.092-0.031-0.17-0.094-0.23
			c-0.064-0.061-0.141-0.091-0.227-0.091c-0.096,0-0.174,0.03-0.232,0.091c-0.061,0.061-0.092,0.139-0.092,0.23
			c0,0.089,0.031,0.166,0.092,0.229c0.059,0.062,0.137,0.096,0.232,0.096c0.082,0,0.154-0.033,0.223-0.101
			C93.326,102.482,93.359,102.406,93.359,102.324z M93.566,102.986c0-0.089-0.033-0.164-0.096-0.227
			c-0.062-0.063-0.139-0.095-0.227-0.095s-0.164,0.031-0.227,0.095c-0.064,0.062-0.096,0.138-0.096,0.227
			c0,0.094,0.031,0.17,0.096,0.227c0.062,0.059,0.139,0.088,0.227,0.088c0.082,0,0.156-0.031,0.223-0.092
			S93.566,103.074,93.566,102.986z M93.738,103.648c0-0.089-0.029-0.164-0.094-0.225c-0.062-0.061-0.139-0.09-0.227-0.09
			c-0.094,0-0.17,0.029-0.229,0.09s-0.086,0.136-0.086,0.225c0,0.088,0.031,0.162,0.09,0.227c0.062,0.064,0.137,0.096,0.225,0.096
			s0.164-0.031,0.227-0.096C93.709,103.811,93.738,103.736,93.738,103.648z M93.607,104.656c0.09,0,0.162-0.031,0.223-0.096
			c0.062-0.062,0.092-0.139,0.092-0.227c0-0.093-0.029-0.17-0.092-0.231c-0.061-0.062-0.133-0.091-0.223-0.091
			c-0.088,0-0.162,0.029-0.229,0.091c-0.062,0.062-0.094,0.139-0.094,0.231c0,0.084,0.031,0.158,0.094,0.223
			C93.445,104.623,93.52,104.656,93.607,104.656z M94.145,104.996c0-0.09-0.031-0.164-0.09-0.224
			c-0.062-0.062-0.139-0.091-0.232-0.091c-0.088,0-0.162,0.029-0.223,0.091c-0.062,0.06-0.09,0.134-0.09,0.224
			c0,0.088,0.027,0.165,0.09,0.227c0.061,0.063,0.135,0.095,0.223,0.095c0.094,0,0.17-0.031,0.232-0.095
			C94.113,105.161,94.145,105.084,94.145,104.996z M94.51,105.615c0-0.088-0.033-0.163-0.098-0.229
			c-0.061-0.062-0.137-0.094-0.225-0.094c-0.09,0-0.164,0.031-0.225,0.094c-0.061,0.065-0.092,0.141-0.092,0.229
			s0.031,0.162,0.092,0.223c0.061,0.062,0.135,0.094,0.225,0.094c0.088,0,0.164-0.033,0.225-0.098
			C94.477,105.771,94.51,105.699,94.51,105.615z M94.863,104.996c0-0.09-0.029-0.164-0.09-0.224
			c-0.061-0.062-0.137-0.091-0.23-0.091c-0.09,0-0.164,0.029-0.223,0.091c-0.062,0.06-0.094,0.134-0.094,0.224
			c0,0.088,0.031,0.165,0.094,0.227c0.059,0.063,0.133,0.095,0.223,0.095c0.094,0,0.17-0.031,0.23-0.095
			C94.834,105.161,94.863,105.084,94.863,104.996z M95.08,104.326c0-0.095-0.033-0.172-0.096-0.232
			c-0.064-0.061-0.139-0.09-0.227-0.09c-0.094,0-0.172,0.029-0.232,0.09s-0.092,0.138-0.092,0.232c0,0.088,0.031,0.164,0.092,0.228
			c0.061,0.062,0.139,0.095,0.232,0.095c0.082,0,0.156-0.034,0.223-0.1C95.047,104.482,95.08,104.408,95.08,104.326z M95.27,103.648
			c0-0.089-0.033-0.164-0.096-0.225s-0.139-0.09-0.227-0.09c-0.09,0-0.162,0.029-0.223,0.09s-0.092,0.136-0.092,0.225
			c0,0.088,0.031,0.162,0.096,0.227c0.062,0.064,0.135,0.096,0.219,0.096c0.088,0,0.164-0.031,0.227-0.096
			S95.27,103.736,95.27,103.648z M95.443,102.979c0-0.088-0.031-0.162-0.092-0.223s-0.137-0.091-0.23-0.091
			c-0.09,0-0.162,0.03-0.225,0.091c-0.059,0.061-0.09,0.135-0.09,0.223s0.031,0.164,0.09,0.228c0.062,0.062,0.135,0.095,0.225,0.095
			c0.094,0,0.17-0.032,0.23-0.095C95.412,103.143,95.443,103.066,95.443,102.979z M95.6,102.291c0-0.086-0.029-0.163-0.086-0.225
			c-0.057-0.064-0.133-0.097-0.229-0.097c-0.088,0-0.162,0.032-0.227,0.097c-0.064,0.062-0.096,0.139-0.096,0.225
			c0,0.089,0.033,0.164,0.1,0.224c0.064,0.062,0.141,0.091,0.223,0.091c0.096,0,0.172-0.029,0.229-0.091
			C95.57,102.455,95.6,102.38,95.6,102.291z M95.303,101.656c0,0.088,0.029,0.163,0.09,0.227c0.062,0.063,0.139,0.096,0.232,0.096
			c0.088,0,0.162-0.032,0.223-0.096c0.062-0.063,0.092-0.139,0.092-0.227c0-0.089-0.029-0.162-0.092-0.225
			c-0.061-0.06-0.135-0.091-0.223-0.091c-0.094,0-0.17,0.031-0.232,0.091C95.332,101.494,95.303,101.567,95.303,101.656z
			 M95.643,102.291c0,0.089,0.027,0.164,0.086,0.224c0.059,0.062,0.135,0.091,0.227,0.091c0.084,0,0.156-0.029,0.225-0.091
			c0.064-0.06,0.098-0.135,0.098-0.224c0-0.086-0.031-0.163-0.094-0.225c-0.064-0.064-0.141-0.097-0.229-0.097
			c-0.092,0-0.168,0.032-0.227,0.097C95.67,102.128,95.643,102.205,95.643,102.291z M95.799,102.979c0,0.088,0.031,0.164,0.09,0.228
			c0.061,0.062,0.139,0.095,0.232,0.095c0.088,0,0.162-0.032,0.223-0.095c0.061-0.063,0.09-0.14,0.09-0.228s-0.029-0.162-0.09-0.223
			s-0.135-0.091-0.223-0.091c-0.094,0-0.172,0.03-0.232,0.091C95.83,102.816,95.799,102.891,95.799,102.979z M95.973,103.648
			c0,0.088,0.031,0.162,0.094,0.227c0.064,0.064,0.141,0.096,0.229,0.096c0.08,0,0.156-0.031,0.221-0.096
			c0.062-0.064,0.092-0.139,0.092-0.227c0-0.089-0.029-0.164-0.09-0.225c-0.062-0.061-0.133-0.09-0.223-0.09
			c-0.088,0-0.164,0.029-0.229,0.09C96.004,103.484,95.973,103.56,95.973,103.648z M96.162,104.326c0,0.082,0.033,0.156,0.1,0.223
			c0.064,0.065,0.141,0.1,0.221,0.1c0.096,0,0.174-0.032,0.232-0.095c0.061-0.063,0.092-0.14,0.092-0.228
			c0-0.095-0.031-0.172-0.092-0.232c-0.059-0.061-0.137-0.09-0.232-0.09c-0.086,0-0.162,0.029-0.225,0.09
			C96.193,104.154,96.162,104.231,96.162,104.326z M96.375,104.996c0,0.088,0.033,0.165,0.092,0.227
			c0.062,0.063,0.139,0.095,0.232,0.095c0.088,0,0.162-0.031,0.225-0.095c0.059-0.062,0.09-0.139,0.09-0.227
			c0-0.09-0.031-0.164-0.09-0.224c-0.062-0.062-0.137-0.091-0.225-0.091c-0.094,0-0.17,0.029-0.232,0.091
			C96.408,104.832,96.375,104.906,96.375,104.996z M96.732,105.615c0,0.084,0.031,0.156,0.094,0.219
			c0.066,0.064,0.143,0.098,0.229,0.098c0.088,0,0.162-0.032,0.223-0.094c0.062-0.061,0.092-0.135,0.092-0.223
			s-0.029-0.163-0.092-0.229c-0.061-0.062-0.135-0.094-0.223-0.094c-0.086,0-0.162,0.031-0.229,0.094
			C96.764,105.452,96.732,105.527,96.732,105.615z M97.096,104.996c0,0.088,0.031,0.165,0.09,0.227
			c0.062,0.063,0.139,0.095,0.232,0.095c0.088,0,0.164-0.031,0.225-0.095c0.061-0.062,0.09-0.139,0.09-0.227
			c0-0.09-0.029-0.164-0.09-0.224c-0.061-0.062-0.137-0.091-0.225-0.091c-0.094,0-0.17,0.029-0.232,0.091
			C97.127,104.832,97.096,104.906,97.096,104.996z M97.635,104.656c0.088,0,0.162-0.033,0.225-0.1
			c0.064-0.064,0.098-0.139,0.098-0.223c0-0.093-0.033-0.17-0.098-0.231c-0.062-0.062-0.137-0.091-0.225-0.091
			c-0.09,0-0.164,0.029-0.225,0.091s-0.092,0.139-0.092,0.231c0,0.088,0.031,0.164,0.092,0.227
			C97.471,104.625,97.545,104.656,97.635,104.656z M97.502,103.648c0,0.088,0.031,0.162,0.096,0.227
			c0.062,0.064,0.137,0.096,0.227,0.096c0.088,0,0.162-0.031,0.223-0.096c0.062-0.064,0.09-0.139,0.09-0.227
			c0-0.089-0.027-0.164-0.086-0.225s-0.133-0.09-0.227-0.09c-0.09,0-0.164,0.029-0.227,0.09
			C97.533,103.484,97.502,103.56,97.502,103.648z M97.676,102.986c0,0.088,0.033,0.162,0.098,0.223
			c0.066,0.061,0.141,0.092,0.225,0.092c0.088,0,0.164-0.029,0.227-0.088c0.062-0.057,0.096-0.133,0.096-0.227
			c0-0.089-0.033-0.164-0.096-0.227c-0.062-0.063-0.139-0.095-0.227-0.095c-0.09,0-0.164,0.031-0.229,0.095
			C97.705,102.822,97.676,102.897,97.676,102.986z M97.883,102.324c0,0.082,0.031,0.158,0.098,0.224
			c0.066,0.067,0.141,0.101,0.225,0.101c0.094,0,0.17-0.033,0.23-0.096s0.092-0.14,0.092-0.229c0-0.092-0.031-0.17-0.092-0.23
			s-0.137-0.091-0.23-0.091c-0.09,0-0.166,0.03-0.229,0.091C97.912,102.154,97.883,102.232,97.883,102.324z M98.088,101.656
			c0,0.088,0.031,0.163,0.096,0.227c0.062,0.063,0.139,0.096,0.227,0.096c0.094,0,0.168-0.032,0.229-0.096
			c0.057-0.063,0.088-0.139,0.088-0.227c0-0.089-0.031-0.162-0.088-0.225c-0.061-0.06-0.135-0.091-0.229-0.091
			c-0.088,0-0.164,0.031-0.227,0.091C98.119,101.494,98.088,101.567,98.088,101.656z"/>
		<path fill="#FFFFFF" d="M102.438,106.277l-0.166-0.547h-1.645l-0.174,0.547H98.74l1.803-5.2h1.787l1.809,5.2H102.438z
			 M100.047,105.69c0-0.083-0.033-0.156-0.1-0.219c-0.066-0.064-0.139-0.097-0.223-0.097c-0.094,0-0.168,0.031-0.229,0.091
			c-0.057,0.062-0.086,0.136-0.086,0.225c0,0.093,0.029,0.169,0.086,0.232c0.061,0.059,0.135,0.09,0.229,0.09
			c0.09,0,0.164-0.031,0.229-0.09C100.018,105.859,100.047,105.783,100.047,105.69z M100.277,105.036
			c0-0.089-0.033-0.163-0.098-0.228c-0.066-0.062-0.143-0.094-0.223-0.094c-0.09,0-0.166,0.031-0.227,0.09
			c-0.064,0.061-0.096,0.137-0.096,0.231c0,0.089,0.031,0.162,0.096,0.224c0.061,0.062,0.137,0.091,0.227,0.091
			c0.088,0,0.162-0.029,0.227-0.091C100.246,105.198,100.277,105.125,100.277,105.036z M100.502,104.367
			c0-0.083-0.031-0.156-0.096-0.225c-0.062-0.064-0.139-0.098-0.227-0.098c-0.09,0-0.162,0.031-0.223,0.094
			c-0.061,0.065-0.09,0.14-0.09,0.229s0.029,0.164,0.09,0.228c0.061,0.062,0.133,0.095,0.223,0.095c0.088,0,0.164-0.032,0.227-0.095
			C100.471,104.531,100.502,104.456,100.502,104.367z M100.732,103.697c0-0.082-0.029-0.156-0.094-0.224
			c-0.064-0.065-0.141-0.099-0.229-0.099s-0.16,0.031-0.223,0.095c-0.061,0.063-0.09,0.14-0.09,0.228s0.029,0.164,0.09,0.228
			c0.062,0.063,0.135,0.096,0.223,0.096s0.164-0.032,0.229-0.096S100.732,103.785,100.732,103.697z M100.965,103.036
			c0-0.083-0.033-0.157-0.094-0.224c-0.064-0.065-0.143-0.1-0.229-0.1c-0.088,0-0.164,0.033-0.223,0.096
			c-0.062,0.063-0.092,0.139-0.092,0.228s0.029,0.165,0.092,0.228c0.059,0.063,0.135,0.095,0.223,0.095
			c0.086,0,0.164-0.031,0.229-0.095C100.932,103.201,100.965,103.125,100.965,103.036z M100.996,105.061
			c0-0.088-0.031-0.163-0.092-0.226c-0.062-0.065-0.141-0.097-0.229-0.097s-0.164,0.031-0.223,0.097
			c-0.062,0.062-0.092,0.138-0.092,0.226c0,0.09,0.029,0.165,0.092,0.228c0.059,0.062,0.135,0.096,0.223,0.096
			s0.166-0.029,0.229-0.091C100.965,105.232,100.996,105.154,100.996,105.061z M101.189,102.367c0-0.084-0.033-0.158-0.096-0.223
			c-0.064-0.067-0.141-0.102-0.229-0.102s-0.162,0.033-0.223,0.096c-0.061,0.063-0.09,0.14-0.09,0.229
			c0,0.088,0.029,0.164,0.09,0.228s0.135,0.095,0.223,0.095s0.164-0.031,0.229-0.095
			C101.156,102.531,101.189,102.455,101.189,102.367z M101.09,102.028c0.086,0,0.16-0.031,0.223-0.092
			c0.061-0.06,0.09-0.138,0.09-0.231c0-0.083-0.031-0.155-0.096-0.22c-0.061-0.063-0.135-0.095-0.217-0.095
			c-0.096,0-0.174,0.03-0.232,0.092c-0.061,0.061-0.092,0.135-0.092,0.223c0,0.094,0.031,0.172,0.092,0.231
			C100.916,101.997,100.994,102.028,101.09,102.028z M101.438,102.921l-0.441,1.512h0.887L101.438,102.921z M101.742,105.061
			c0-0.088-0.031-0.163-0.09-0.226c-0.062-0.065-0.139-0.097-0.234-0.097c-0.086,0-0.162,0.031-0.227,0.097
			c-0.062,0.062-0.094,0.138-0.094,0.226c0,0.09,0.031,0.165,0.098,0.228s0.141,0.096,0.223,0.096c0.096,0,0.172-0.029,0.234-0.091
			C101.711,105.232,101.742,105.154,101.742,105.061z M101.791,102.028c0.088,0,0.164-0.031,0.225-0.092
			c0.059-0.06,0.092-0.138,0.092-0.231c0-0.083-0.033-0.155-0.096-0.22c-0.064-0.063-0.137-0.095-0.221-0.095
			c-0.088,0-0.164,0.03-0.227,0.092c-0.064,0.061-0.094,0.135-0.094,0.223c0,0.094,0.029,0.172,0.094,0.231
			C101.627,101.997,101.703,102.028,101.791,102.028z M102.295,102.375c0-0.088-0.031-0.164-0.094-0.227
			c-0.062-0.064-0.139-0.096-0.229-0.096c-0.086,0-0.162,0.031-0.223,0.096c-0.059,0.062-0.09,0.139-0.09,0.227
			s0.027,0.163,0.086,0.227c0.059,0.064,0.133,0.096,0.227,0.096c0.09,0,0.166-0.031,0.229-0.096
			C102.264,102.538,102.295,102.463,102.295,102.375z M102.188,105.384c0.09,0,0.162-0.029,0.225-0.091
			c0.061-0.061,0.092-0.139,0.092-0.232c0-0.088-0.031-0.163-0.092-0.226c-0.062-0.065-0.135-0.097-0.225-0.097
			c-0.088,0-0.164,0.031-0.227,0.097c-0.064,0.062-0.096,0.138-0.096,0.226c0,0.09,0.031,0.165,0.096,0.228
			C102.023,105.351,102.1,105.384,102.188,105.384z M102.527,103.044c0-0.095-0.031-0.17-0.096-0.231
			c-0.062-0.061-0.141-0.091-0.227-0.091c-0.088,0-0.164,0.032-0.229,0.095c-0.062,0.064-0.094,0.141-0.094,0.228
			c0,0.089,0.029,0.163,0.09,0.224s0.139,0.091,0.232,0.091c0.086,0,0.164-0.03,0.227-0.091
			C102.496,103.207,102.527,103.133,102.527,103.044z M102.438,104.021c0.086,0,0.16-0.03,0.223-0.091
			c0.059-0.062,0.092-0.139,0.092-0.232c0-0.088-0.033-0.162-0.092-0.224c-0.062-0.061-0.137-0.09-0.223-0.09
			c-0.09,0-0.166,0.029-0.229,0.09c-0.064,0.062-0.096,0.136-0.096,0.224c0,0.094,0.031,0.171,0.096,0.232
			C102.271,103.99,102.348,104.021,102.438,104.021z M102.982,104.367c0-0.083-0.031-0.156-0.096-0.225
			c-0.062-0.064-0.139-0.098-0.227-0.098s-0.162,0.031-0.223,0.094c-0.062,0.065-0.092,0.14-0.092,0.229s0.029,0.164,0.092,0.228
			c0.061,0.062,0.135,0.095,0.223,0.095s0.164-0.032,0.227-0.095C102.951,104.531,102.982,104.456,102.982,104.367z
			 M103.215,105.036c0-0.089-0.033-0.163-0.1-0.228c-0.066-0.062-0.141-0.094-0.225-0.094c-0.09,0-0.162,0.031-0.225,0.09
			c-0.059,0.061-0.09,0.137-0.09,0.231c0,0.089,0.031,0.162,0.09,0.224c0.062,0.062,0.135,0.091,0.225,0.091
			c0.088,0,0.164-0.029,0.227-0.091C103.184,105.198,103.215,105.125,103.215,105.036z M103.436,105.69
			c0-0.089-0.029-0.163-0.09-0.225c-0.061-0.06-0.139-0.091-0.23-0.091c-0.084,0-0.158,0.032-0.225,0.097
			c-0.064,0.062-0.1,0.136-0.1,0.219c0,0.093,0.033,0.169,0.096,0.232c0.064,0.059,0.141,0.09,0.229,0.09
			c0.092,0,0.17-0.031,0.23-0.09C103.406,105.859,103.436,105.783,103.436,105.69z"/>
		<path fill="#FFFFFF" d="M104.916,106.277v-2.314l-1.686-2.886h1.834l0.662,1.405l0.662-1.405h1.834l-1.686,2.886v2.314H104.916z
			 M104.793,101.615c0-0.083-0.033-0.156-0.1-0.22c-0.066-0.065-0.141-0.095-0.225-0.095c-0.086,0-0.162,0.029-0.223,0.09
			c-0.059,0.061-0.092,0.135-0.092,0.225c0,0.092,0.033,0.17,0.092,0.23c0.061,0.061,0.137,0.091,0.223,0.091
			c0.09,0,0.164-0.03,0.229-0.091C104.76,101.785,104.793,101.707,104.793,101.615z M105.172,102.342
			c0-0.088-0.031-0.164-0.096-0.228c-0.062-0.062-0.139-0.095-0.225-0.095c-0.09,0-0.164,0.032-0.225,0.095
			c-0.061,0.063-0.092,0.14-0.092,0.228c0,0.094,0.031,0.17,0.092,0.227c0.061,0.059,0.135,0.086,0.225,0.086
			c0.086,0,0.162-0.027,0.225-0.086C105.141,102.512,105.172,102.436,105.172,102.342z M105.238,103.384
			c0.094,0,0.168-0.03,0.225-0.091c0.053-0.062,0.082-0.139,0.082-0.231c0-0.089-0.029-0.165-0.088-0.228
			c-0.057-0.062-0.133-0.096-0.227-0.096c-0.088,0-0.164,0.033-0.229,0.096c-0.062,0.062-0.094,0.139-0.094,0.228
			c0,0.093,0.031,0.17,0.098,0.231C105.072,103.354,105.15,103.384,105.238,103.384z M106.041,103.78
			c0-0.088-0.031-0.163-0.092-0.224c-0.061-0.059-0.137-0.091-0.23-0.091c-0.088,0-0.164,0.032-0.223,0.091
			c-0.062,0.061-0.092,0.136-0.092,0.224c0,0.094,0.029,0.171,0.092,0.231c0.059,0.062,0.135,0.091,0.223,0.091
			c0.094,0,0.17-0.029,0.23-0.091C106.01,103.951,106.041,103.874,106.041,103.78z M106.041,104.682
			c0-0.089-0.031-0.165-0.092-0.227c-0.061-0.064-0.137-0.096-0.23-0.096c-0.088,0-0.164,0.031-0.223,0.096
			c-0.062,0.062-0.092,0.138-0.092,0.227c0,0.086,0.029,0.162,0.092,0.223c0.059,0.061,0.135,0.092,0.223,0.092
			c0.094,0,0.17-0.031,0.23-0.092S106.041,104.768,106.041,104.682z M106.041,105.516c0-0.094-0.031-0.169-0.092-0.229
			c-0.061-0.062-0.137-0.092-0.23-0.092c-0.088,0-0.164,0.03-0.223,0.092c-0.062,0.061-0.092,0.136-0.092,0.229
			c0,0.089,0.029,0.163,0.092,0.224c0.059,0.061,0.135,0.09,0.223,0.09c0.094,0,0.17-0.029,0.23-0.09
			S106.041,105.604,106.041,105.516z M106.23,103.384c0.088,0,0.164-0.03,0.223-0.091c0.061-0.062,0.092-0.139,0.092-0.231
			c0-0.089-0.031-0.165-0.092-0.228c-0.059-0.062-0.135-0.096-0.223-0.096s-0.164,0.033-0.229,0.096
			c-0.061,0.062-0.094,0.139-0.094,0.228c0,0.093,0.033,0.17,0.094,0.231C106.066,103.354,106.143,103.384,106.23,103.384z
			 M106.975,102.342c0-0.088-0.027-0.164-0.088-0.228c-0.057-0.062-0.133-0.095-0.227-0.095c-0.088,0-0.162,0.032-0.227,0.095
			c-0.062,0.063-0.094,0.14-0.094,0.228c0,0.094,0.031,0.17,0.094,0.227c0.064,0.059,0.139,0.086,0.227,0.086
			c0.094,0,0.17-0.027,0.227-0.086C106.947,102.512,106.975,102.436,106.975,102.342z M107.348,101.615
			c0-0.083-0.035-0.156-0.1-0.22c-0.066-0.065-0.141-0.095-0.225-0.095c-0.086,0-0.162,0.029-0.223,0.09s-0.09,0.135-0.09,0.225
			c0,0.092,0.029,0.17,0.09,0.23s0.137,0.091,0.223,0.091c0.09,0,0.164-0.03,0.229-0.091
			C107.314,101.785,107.348,101.707,107.348,101.615z"/>
	</g>
	<g>
		<path fill="#FFFFFF" d="M108.637,109.196H67.404c-1.122,0-2.035-0.913-2.035-2.037v-6.737c0-1.123,0.914-2.037,2.035-2.037h41.232
			c1.123,0,2.037,0.914,2.037,2.037v6.737C110.674,108.283,109.76,109.196,108.637,109.196z M67.404,98.838
			c-0.872,0-1.583,0.71-1.583,1.584v6.737c0,0.874,0.71,1.585,1.583,1.585h41.232c0.875,0,1.586-0.711,1.586-1.585v-6.737
			c0-0.874-0.711-1.584-1.586-1.584H67.404z"/>
	</g>
</g>
</svg>
